<?xml version="1.0" encoding="utf-8"?>
<!-- Generator: Adobe Illustrator 26.5.0, SVG Export Plug-In . SVG Version: 6.00 Build 0)  -->
<svg version="1.1" id="Layer_1" xmlns="http://www.w3.org/2000/svg" xmlns:xlink="http://www.w3.org/1999/xlink" x="0px" y="0px"
	 viewBox="0 0 256 256" enable-background="new 0 0 256 256" xml:space="preserve">
<path fill="#222222" d="M144,225.08c0-7.93-5.71-14.53-13.23-15.94v-31.51h7.02v12c0,8.44,6.87,15.31,15.31,15.31h11.94
	c1.41,7.52,8.02,13.23,15.95,13.23c8.95,0,16.23-7.28,16.23-16.23s-7.28-16.23-16.23-16.23c-7.93,0-14.53,5.71-15.95,13.23h-11.94
	c-5.13,0-9.31-4.18-9.31-9.31v-12h19.82c7.56,0,13.71-6.15,13.71-13.71v-72.8c0-7.56-6.15-13.71-13.71-13.71h-19.82V64.98
	c0-5.13,4.18-9.31,9.31-9.31h11.94c1.41,7.52,8.02,13.23,15.95,13.23c8.95,0,16.23-7.28,16.23-16.23s-7.28-16.23-16.23-16.23
	c-7.93,0-14.53,5.71-15.95,13.23h-11.94c-8.44,0-15.31,6.87-15.31,15.31V77.4h-7.06V46.87c7.52-1.41,13.23-8.02,13.23-15.94
	c0-8.95-7.28-16.23-16.23-16.23s-16.23,7.28-16.23,16.23c0,7.93,5.71,14.53,13.23,15.94V77.4h-6.51V64.98
	c0-8.44-6.87-15.31-15.31-15.31H90.96c-1.41-7.52-8.02-13.23-15.94-13.23c-8.95,0-16.23,7.28-16.23,16.23s7.28,16.23,16.23,16.23
	c7.93,0,14.53-5.71,15.94-13.23h11.94c5.13,0,9.31,4.18,9.31,9.31V77.4H90.81c-7.56,0-13.71,6.15-13.71,13.71v72.8
	c0,7.56,6.15,13.71,13.71,13.71h21.41v12c0,5.13-4.18,9.31-9.31,9.31H90.96c-1.41-7.52-8.02-13.23-15.94-13.23
	c-8.95,0-16.23,7.28-16.23,16.23s7.28,16.23,16.23,16.23c7.93,0,14.53-5.71,15.94-13.23h11.94c8.44,0,15.31-6.87,15.31-15.31v-12
	h6.55v31.51c-7.52,1.41-13.23,8.02-13.23,15.94c0,8.95,7.28,16.23,16.23,16.23S144,234.03,144,225.08z M180.98,191.69
	c5.64,0,10.23,4.59,10.23,10.23s-4.59,10.23-10.23,10.23s-10.24-4.59-10.24-10.23S175.34,191.69,180.98,191.69z M180.98,42.44
	c5.64,0,10.23,4.59,10.23,10.23s-4.59,10.23-10.23,10.23s-10.24-4.59-10.24-10.23S175.34,42.44,180.98,42.44z M117.49,30.92
	c0-5.64,4.59-10.23,10.23-10.23s10.23,4.59,10.23,10.23s-4.59,10.23-10.23,10.23S117.49,36.56,117.49,30.92z M75.02,62.91
	c-5.64,0-10.23-4.59-10.23-10.23s4.59-10.23,10.23-10.23s10.23,4.59,10.23,10.23S80.66,62.91,75.02,62.91z M75.02,212.16
	c-5.64,0-10.23-4.59-10.23-10.23s4.59-10.23,10.23-10.23s10.23,4.59,10.23,10.23S80.66,212.16,75.02,212.16z M130.77,171.62v-18.75
	h7.02v18.75H130.77z M163.61,83.4c4.25,0,7.71,3.46,7.71,7.71v72.8c0,4.25-3.46,7.71-7.71,7.71h-19.82v-19.68
	c5.13-1.99,8.78-6.96,8.78-12.78v-23.3c0-5.82-3.65-10.79-8.78-12.78V83.4H163.61z M138.86,146.87h-23.3
	c-4.25,0-7.71-3.46-7.71-7.71v-23.3c0-4.25,3.46-7.71,7.71-7.71h23.3c4.25,0,7.71,3.46,7.71,7.71v23.3
	C146.57,143.41,143.11,146.87,138.86,146.87z M137.79,83.4v18.75h-7.06V83.4H137.79z M124.72,83.4v18.75h-6.51V83.4H124.72z
	 M90.81,171.62c-4.25,0-7.71-3.46-7.71-7.71v-72.8c0-4.25,3.46-7.71,7.71-7.71h21.41v19.18c-5.95,1.5-10.37,6.88-10.37,13.28v23.3
	c0,6.41,4.42,11.78,10.37,13.28v19.18H90.81z M118.21,171.62v-18.75h6.55v18.75H118.21z M117.53,225.08
	c0-5.64,4.59-10.23,10.23-10.23S138,219.44,138,225.08s-4.59,10.23-10.23,10.23S117.53,230.72,117.53,225.08z"/>
</svg>
