<?xml version="1.0" encoding="utf-8"?>
<!-- Generator: Adobe Illustrator 27.4.1, SVG Export Plug-In . SVG Version: 6.00 Build 0)  -->
<svg version="1.1" xmlns="http://www.w3.org/2000/svg" xmlns:xlink="http://www.w3.org/1999/xlink" x="0px" y="0px"
	 viewBox="0 0 600 600" enable-background="new 0 0 600 600" xml:space="preserve">
<g id="Layer_2" display="none">
	<rect x="0" display="inline" fill="#31609B" width="600" height="600"/>
</g>
<g id="Layer_1">
	<rect x="373.31" y="102.96" fill="#D16717" width="106.4" height="106.4"/>
	<circle fill="#31609B" cx="212.17" cy="365.14" r="135.01"/>
	<g>
		<path fill="#FFFFFF" d="M461.41,77.46h-72.13c-22.85,0-41.44,18.59-41.44,41.44v72.13c0,0.58,0.02,1.15,0.04,1.72
			c-2.4,31.54-23.53,47.61-53.64,33.23c-1.31-0.63-2.41-1.06-3.35-1.35c-22.97-12.88-49.46-20.23-77.66-20.23
			c-87.85,0-159.07,71.22-159.07,159.07s71.22,159.07,159.07,159.07S372.3,451.32,372.3,363.47c0-27.64-7.05-53.63-19.45-76.28
			c-11.13-28.57,3.36-53.84,34.89-54.77c0.51,0.02,1.02,0.04,1.54,0.04h72.13c22.85,0,41.44-18.59,41.44-41.44v-72.13
			C502.84,96.05,484.25,77.46,461.41,77.46z M293.87,435.39c-28.06,8.69-68.63,13.85-108.9,2.61
			c-73.25,12.22-106.82-52.66-60.7-73.4v-0.01c-5.3-9-8.34-19.49-8.34-30.68c0-33.46,27.13-60.59,60.59-60.59
			c24.05,0,44.83,14.02,54.61,34.32c17.53,0.77,34.44,9.43,40.94,28.47c31.12-12.93,53.11,17.15,47.6,38.05
			C347.83,391.8,330.36,424.09,293.87,435.39z M334.64,372.51c-0.95,0.95-2.27,1.54-3.72,1.54c-1.45,0-2.77-0.59-3.72-1.54
			c-0.96-0.95-1.54-2.27-1.54-3.72c0-1.46,0.59-2.77,1.54-3.72c0.95-0.95,2.27-1.54,3.72-1.54c1.45,0,2.77,0.59,3.72,1.54
			c0.95,0.95,1.54,2.27,1.54,3.72C336.19,370.24,335.6,371.56,334.64,372.51z M464.84,191.02c0,1.89-1.54,3.44-3.44,3.44h-72.13
			c-1.89,0-3.44-1.54-3.44-3.44v-72.13c0-1.89,1.54-3.44,3.44-3.44h72.13c1.89,0,3.44,1.54,3.44,3.44V191.02z"/>
		<path fill="#FFFFFF" d="M443.84,132.46h-37c-2.21,0-4,1.79-4,4v37c0,2.21,1.79,4,4,4h37c2.21,0,4-1.79,4-4v-37
			C447.84,134.25,446.05,132.46,443.84,132.46z"/>
		<circle fill="#FFFFFF" cx="532.84" cy="113.96" r="13"/>
		<circle fill="#FFFFFF" cx="532.84" cy="156.96" r="13"/>
		<circle fill="#FFFFFF" cx="532.84" cy="198.96" r="13"/>
		<circle fill="#FFFFFF" cx="317.84" cy="113.96" r="13"/>
		<circle fill="#FFFFFF" cx="317.84" cy="156.96" r="13"/>
		<circle fill="#FFFFFF" cx="317.84" cy="198.96" r="13"/>
		<path fill="#FFFFFF" d="M330.92,364.73c-1.12,0-2.14,0.45-2.87,1.19c-0.73,0.73-1.19,1.75-1.19,2.87c0,1.12,0.45,2.14,1.19,2.87
			c0.73,0.73,1.75,1.19,2.87,1.19s2.14-0.45,2.87-1.19c0.74-0.74,1.19-1.75,1.19-2.87c0-1.12-0.46-2.14-1.19-2.87
			C333.06,365.18,332.04,364.73,330.92,364.73z M332.4,371.3l-0.77-1.15c-0.27-0.41-0.46-0.67-0.56-0.77
			c-0.1-0.11-0.21-0.18-0.32-0.22c-0.11-0.04-0.29-0.06-0.54-0.06H330v2.2h-1.06v-5.26h2.24c0.56,0,0.97,0.05,1.22,0.14
			c0.25,0.1,0.46,0.26,0.61,0.5c0.15,0.24,0.23,0.52,0.23,0.83c0,0.39-0.12,0.72-0.35,0.98c-0.23,0.26-0.58,0.42-1.04,0.49
			c0.23,0.14,0.42,0.28,0.57,0.44c0.15,0.16,0.35,0.45,0.6,0.85l0.64,1.03H332.4z"/>
		<path fill="#FFFFFF" d="M306.46,380.62c3.6-20.88-19.04-34.96-37.54-18.11c-3.02-17.14-19.3-23-32.72-18.02
			c-2.87,16.32-12.27,30.38-25.41,39.41c0.26-0.41,0.52-0.82,0.75-1.26c1.06-1.94,1.72-4.05,2.12-6.32c0.4-2.27,0.53-4.71,0.53-7.32
			l-0.05-51.63c0-3.22,0.75-5.57,2.35-7.11c1.6-1.54,4.05-2.28,7.44-2.28h0.16v-0.16l0.01-2.22v-0.16h-0.15l-9.91,0.02h-10.19h-0.16
			v0.16v8.1c-1.78-3.2-4.05-5.52-6.69-7.08c-3-1.78-6.48-2.57-10.26-2.57c-1.52,0-2.95,0.12-4.3,0.35
			c-7.38,1.26-12.36,5.78-15.49,11.63c-3.12,5.83-4.4,12.99-4.4,19.55c0,2.75,0.23,5.4,0.64,7.8c1.25,7.31,3.97,13.21,8.05,17.25
			c3.94,3.91,9.15,6.07,15.52,6.07c4.19,0,7.34-0.61,10.02-2.16c2.55-1.47,4.66-3.79,6.81-7.21c-0.01,0.93-0.01,2.15-0.02,3.54
			c0,6.08-0.01,15.45-1.12,18.71c-1,2.96-2.8,5.01-4.98,6.38c-2.65,1.66-5.86,2.3-8.87,2.3c-2.89,0-6.1-1.01-8.5-3.09
			c-2-1.73-3.45-4.2-3.7-7.46l-0.01-0.15h-0.15h-11.89h-0.16l0.01,0.16c0.22,5.57,2.89,9.26,6.49,11.68
			c4.59,3.09,10.69,4.11,15.16,4.35c-3.04,0.47-6.15,0.72-9.31,0.72c-8.24,0-16.09-1.65-23.25-4.62
			c-37.84,0.2-18.93,45.73,37.13,35.91c34.52,14.52,80.53,14.65,107.4-0.67C318.49,413.34,327.24,391.49,306.46,380.62z
			 M199.69,354.84c-2.38,3.85-5.96,6.32-11.1,6.32c-4.2,0-7.8-2.36-10.33-6.55c-2.49-4.13-3.95-10.03-3.95-17.21
			c0-6.1,0.9-14.64,4.03-20.66c2.2-4.24,5.49-7.23,10.36-7.23c6.76,0,10.51,3.82,12.57,9.09c2.07,5.31,2.44,12.09,2.44,17.95
			C203.7,343.4,202.58,350.15,199.69,354.84z"/>
		<path fill="#FFFFFF" d="M332.15,367.59c0-0.18-0.05-0.32-0.14-0.43c-0.09-0.11-0.23-0.18-0.4-0.21c-0.08-0.01-0.34-0.02-0.77-0.02
			H330v1.33h0.79c0.51,0,0.83-0.02,0.95-0.06c0.13-0.04,0.23-0.12,0.3-0.22C332.11,367.88,332.15,367.75,332.15,367.59z"/>
	</g>
</g>
</svg>
